<?xml version="1.0" encoding="UTF-8"?>
<svg id="Layer_1" data-name="Layer 1" xmlns="http://www.w3.org/2000/svg" viewBox="0 0 31.75 46.91">
  <defs>
    <style>
      .cls-1, .cls-2 {
        fill: #52bd8c;
      }

      .cls-3 {
        fill: #447cbf;
      }

      .cls-4 {
        fill: #e664a5;
        font-family: STIXTwoText, 'STIX Two Text';
        font-size: 12px;
        font-variation-settings: 'wght' 400;
      }

      .cls-5, .cls-6, .cls-7, .cls-8 {
        fill: #f1f9fb;
      }

      .cls-9 {
        fill: #ef4888;
      }

      .cls-6, .cls-8 {
        stroke: #e665a6;
      }

      .cls-2, .cls-10, .cls-11 {
        stroke-miterlimit: 10;
      }

      .cls-2, .cls-10, .cls-11, .cls-8 {
        stroke-width: .5px;
      }

      .cls-2, .cls-11 {
        stroke: #f1f9fb;
      }

      .cls-12 {
        fill: #e1156e;
      }

      .cls-10 {
        stroke: #e565a6;
      }

      .cls-10, .cls-11 {
        fill: #eaaacd;
      }

      .cls-7 {
        stroke: #447cbf;
        stroke-width: .75px;
      }
    </style>
  </defs>
  <rect class="cls-6" x=".5" y=".5" width="30.75" height="45.91" rx="3.87" ry="3.87"/>
  <rect class="cls-7" x="1.74" y="1.63" width="28.27" height="43.65" rx="3.09" ry="3.09"/>
  <text class="cls-4" transform="translate(12.9 11.34)"><tspan x="0" y="0">1</tspan></text>
  <text/>
  <g>
    <rect class="cls-2" x="9.44" y="26.25" width="2.63" height="13.94" rx="1.31" ry="1.31" transform="translate(-24.11 31.37) rotate(-69.02)"/>
    <rect class="cls-11" x="3.02" y="30.21" width="3.94" height="1.59" rx=".8" ry=".8" transform="translate(-25.75 24.57) rotate(-69.02)"/>
    <rect class="cls-11" x="14.55" y="34.63" width="3.94" height="1.59" rx=".8" ry=".8" transform="translate(-22.47 38.17) rotate(-69.02)"/>
    <rect class="cls-11" x="8.79" y="32.42" width="3.94" height="1.59" rx=".8" ry=".8" transform="translate(-24.11 31.37) rotate(-69.02)"/>
  </g>
  <path class="cls-9" d="M15.12,31.19c-.22-.11-.51-.3-.73-.44-.12.11-1.01.69-1.07.68-.52,0-1.62-.65-2.2-.72l1.7-1.07c-.19-.16-.38-.36-.56-.53-.35.12-1.97,1.26-2.18,1.26-.64,0-1.97-1.09-2.24.4.12-.15.44-.42.63-.39.21.04.25.18.26.18,1.99.67,4.38,1.23,6.25,1.94.33.13.42.71.46.69.43-.88-.54-1.33-1.19-1.5l.86-.53Z"/>
  <path class="cls-5" d="M12.82,29.65l-1.7,1.07c.58.07,1.68.71,2.2.72.06,0,.95-.58,1.07-.68-.5-.3-1.11-.73-1.57-1.1Z"/>
  <path class="cls-1" d="M9.87,16.48c.18.03.94-.33,1.25-.39l-3.36-1.5c-.1.08.02.2.07.25.23.25,1.82,1.6,2.04,1.64Z"/>
  <path class="cls-8" d="M9.3,16.28c.14.08.28.14.41.23l.32.2c-.2-.04-1.98-1.68-2.2-1.9-.04-.04-.16-.15-.07-.22l3.15,1.37c.05,0,.22-.08.24-.02.04-.03.13-.07.13-.13,0-.12-.95-1.61-1.09-1.71-.38-.28-1.82-.01-2.31.13-.22.06-.45.13-.66.25-.05.14,1.83,1.65,2.08,1.79Z"/>
  <path class="cls-1" d="M9.99,14.28c-.58-.32-1.65,0-2.28.19l3.33,1.3c-.24-.33-.73-1.31-1.05-1.48Z"/>
  <path class="cls-10" d="M15.01,18.34c.56-2.63-2.14-4.51-4.35-3.69.12.18.8,1.27.74,1.4l-1.68.66s.09.14,0,0c.07.14.21,1.44.18,1.56-4.05,5.93,1.98,12.75,7.82,13.91l4.79,10.63c1.11.81,2.09.88,1.5-.87-1-2.97-3.51-6.44-4.22-9.41,4.99,5.32-2.2-12.99-3.32-14.29,0-3.45-3.64-5.62-6.7-4.29,1.32-.05.41-.06.57.15,2.8-.98,5.86,1.12,5.75,4.17,2.06,3.57,3.44,7.83,4.29,11.87.15.17.22.34.15.59-2.65-2.35-4.7-5.5-5.2-9.62"/>
  <path class="cls-10" d="M20.93,32.75c-3.41-3.3-7.35-6.91-8.29-11.77-.51,4.37,3.58,7.68,6.11,10.64-5.57.49-9.88-5.21-8.87-11.59.08-.51.34-.65.68-1.09"/>
  <path class="cls-12" d="M19.34,31.98c-.64-.31-.12,1.27-.05,1.49.49,1.47,3.65,8.36,4.54,9.2.11.1.34.34.42.06.07-.24-1.8-3.82-2.05-4.34-.36-.79-2.56-6.26-2.86-6.41Z"/>
  <path class="cls-5" d="M12.84,15.07c-.82-.49-1.35.78-.78,1.13.82.51,1.38-.77.78-1.13Z"/>
  <path class="cls-3" d="M12.79,15.2c-.83-.56-1.26,1.01-.32.98.49-.02.65-.75.32-.98Z"/>
  <path class="cls-5" d="M12.6,15.24c-.15-.05-.28.21-.14.3.19.12.35-.23.14-.3Z"/>
</svg>