<?xml version="1.0" encoding="UTF-8"?>
<svg id="Layer_1" data-name="Layer 1" xmlns="http://www.w3.org/2000/svg" viewBox="0 0 31.75 46.91">
  <defs>
    <style>
      .cls-1 {
        font-family: STIXTwoText, 'STIX Two Text';
        font-size: 12px;
        font-variation-settings: 'wght' 400;
      }

      .cls-1, .cls-2 {
        fill: #e664a5;
      }

      .cls-3 {
        stroke: #e665a6;
      }

      .cls-3, .cls-4 {
        fill: #f1f9fb;
      }

      .cls-5 {
        fill: #52bd8c;
      }

      .cls-5, .cls-6, .cls-7, .cls-2, .cls-8 {
        stroke: #f1f9fb;
        stroke-miterlimit: 10;
        stroke-width: .5px;
      }

      .cls-6 {
        fill: #447cbf;
      }

      .cls-7 {
        fill: #eaaacd;
      }

      .cls-4 {
        stroke: #447cbf;
        stroke-width: .75px;
      }

      .cls-8 {
        fill: #e5a9cc;
      }
    </style>
  </defs>
  <rect class="cls-3" x=".5" y=".5" width="30.75" height="45.91" rx="3.87" ry="3.87"/>
  <rect class="cls-4" x="1.74" y="1.63" width="28.27" height="43.65" rx="3.09" ry="3.09"/>
  <text class="cls-1" transform="translate(12.9 11.2)"><tspan x="0" y="0">5</tspan></text>
  <g>
    <rect class="cls-6" x="21.7" y="12.18" width="2.63" height="13.94" rx="1.31" ry="1.31"/>
    <rect class="cls-8" x="21.05" y="12.18" width="3.94" height="1.59" rx=".8" ry=".8"/>
    <rect class="cls-8" x="21.05" y="24.53" width="3.94" height="1.59" rx=".8" ry=".8"/>
    <rect class="cls-8" x="21.05" y="18.36" width="3.94" height="1.59" rx=".8" ry=".8"/>
  </g>
  <g>
    <rect class="cls-5" x="21.7" y="29.78" width="2.63" height="13.94" rx="1.31" ry="1.31"/>
    <rect class="cls-7" x="21.05" y="29.78" width="3.94" height="1.59" rx=".8" ry=".8"/>
    <rect class="cls-7" x="21.05" y="42.13" width="3.94" height="1.59" rx=".8" ry=".8"/>
    <rect class="cls-7" x="21.05" y="35.96" width="3.94" height="1.59" rx=".8" ry=".8"/>
  </g>
  <g>
    <rect class="cls-6" x="6.98" y="29.78" width="2.63" height="13.94" rx="1.31" ry="1.31"/>
    <rect class="cls-7" x="6.32" y="29.78" width="3.94" height="1.59" rx=".8" ry=".8"/>
    <rect class="cls-7" x="6.32" y="42.13" width="3.94" height="1.59" rx=".8" ry=".8"/>
    <rect class="cls-7" x="6.32" y="35.96" width="3.94" height="1.59" rx=".8" ry=".8"/>
  </g>
  <g>
    <rect class="cls-5" x="6.98" y="12.18" width="2.63" height="13.94" rx="1.31" ry="1.31"/>
    <rect class="cls-8" x="6.32" y="12.18" width="3.94" height="1.59" rx=".8" ry=".8"/>
    <rect class="cls-8" x="6.32" y="24.53" width="3.94" height="1.59" rx=".8" ry=".8"/>
    <rect class="cls-8" x="6.32" y="18.36" width="3.94" height="1.59" rx=".8" ry=".8"/>
  </g>
  <g>
    <rect class="cls-2" x="14.34" y="21.37" width="2.63" height="13.94" rx="1.31" ry="1.31"/>
    <rect class="cls-8" x="13.68" y="21.37" width="3.94" height="1.59" rx=".8" ry=".8"/>
    <rect class="cls-8" x="13.68" y="33.72" width="3.94" height="1.59" rx=".8" ry=".8"/>
    <rect class="cls-8" x="13.68" y="27.54" width="3.94" height="1.59" rx=".8" ry=".8"/>
  </g>
</svg>