<?xml version="1.0" encoding="UTF-8"?>
<svg id="Layer_1" data-name="Layer 1" xmlns="http://www.w3.org/2000/svg" viewBox="0 0 31.75 46.91">
  <defs>
    <style>
      .cls-1 {
        fill: #447cbf;
      }

      .cls-2 {
        fill: #e664a5;
        font-family: STIXTwoText, 'STIX Two Text';
        font-size: 12px;
        font-variation-settings: 'wght' 400;
      }

      .cls-3, .cls-4, .cls-5 {
        fill: #f1f9fb;
      }

      .cls-4 {
        stroke: #e665a6;
      }

      .cls-5 {
        stroke: #447cbf;
        stroke-width: .75px;
      }

      .cls-6 {
        fill: #53bd8d;
      }
    </style>
  </defs>
  <rect class="cls-4" x=".5" y=".5" width="30.75" height="45.91" rx="3.87" ry="3.87"/>
  <rect class="cls-5" x="1.74" y="1.63" width="28.27" height="43.65" rx="3.09" ry="3.09"/>
  <text class="cls-2" transform="translate(12.9 11.34)"><tspan x="0" y="0">4</tspan></text>
  <text/>
  <g>
    <g>
      <circle class="cls-6" cx="22.62" cy="34.51" r="5.63"/>
      <g>
        <path class="cls-3" d="M19.49,31.33c-.31.28.16,1.43.87,2.16.7.71,1.82,1.18,2.1.89.27-.28-.24-1.25-.74-1.83-.72-.85-1.91-1.51-2.24-1.21Z"/>
        <path class="cls-3" d="M22.75,34.37c.28.31,1.43-.16,2.16-.87.71-.7,1.18-1.82.89-2.1-.28-.27-1.25.24-1.83.74-.85.72-1.51,1.91-1.21,2.24Z"/>
        <path class="cls-3" d="M22.5,34.68c-.28-.31-1.43.16-2.16.87-.71.7-1.18,1.82-.89,2.1.28.27,1.25-.24,1.83-.74.85-.72,1.51-1.91,1.21-2.24Z"/>
        <path class="cls-3" d="M25.76,37.68c.31-.28-.16-1.43-.87-2.16-.7-.71-1.82-1.18-2.1-.89-.27.28.24,1.25.74,1.83.72.85,1.91,1.51,2.24,1.21Z"/>
      </g>
    </g>
    <g>
      <circle class="cls-1" cx="22.62" cy="20.4" r="5.62"/>
      <g>
        <path class="cls-3" d="M19.49,17.23c-.31.28.16,1.43.87,2.16.7.71,1.82,1.18,2.1.89.27-.28-.24-1.25-.74-1.83-.72-.85-1.91-1.51-2.24-1.21Z"/>
        <path class="cls-3" d="M22.75,20.27c.28.31,1.43-.16,2.16-.87.71-.7,1.18-1.82.89-2.1-.28-.27-1.25.24-1.83.74-.85.72-1.51,1.91-1.21,2.24Z"/>
        <path class="cls-3" d="M22.5,20.57c-.28-.31-1.43.16-2.16.87-.71.7-1.18,1.82-.89,2.1.28.27,1.25-.24,1.83-.74.85-.72,1.51-1.91,1.21-2.24Z"/>
        <path class="cls-3" d="M25.76,23.58c.31-.28-.16-1.43-.87-2.16-.7-.71-1.82-1.18-2.1-.89-.27.28.24,1.25.74,1.83.72.85,1.91,1.51,2.24,1.21Z"/>
      </g>
    </g>
    <g>
      <circle class="cls-1" cx="9.12" cy="34.51" r="5.62"/>
      <g>
        <path class="cls-3" d="M5.99,31.33c-.31.28.16,1.43.87,2.16.7.71,1.82,1.18,2.1.89.27-.28-.24-1.25-.74-1.83-.72-.85-1.91-1.51-2.24-1.21Z"/>
        <path class="cls-3" d="M9.25,34.37c.28.31,1.43-.16,2.16-.87.71-.7,1.18-1.82.89-2.1-.28-.27-1.25.24-1.83.74-.85.72-1.51,1.91-1.21,2.24Z"/>
        <path class="cls-3" d="M9,34.68c-.28-.31-1.43.16-2.16.87-.71.7-1.18,1.82-.89,2.1.28.27,1.25-.24,1.83-.74.85-.72,1.51-1.91,1.21-2.24Z"/>
        <path class="cls-3" d="M12.26,37.68c.31-.28-.16-1.43-.87-2.16-.7-.71-1.82-1.18-2.1-.89-.27.28.24,1.25.74,1.83.72.85,1.91,1.51,2.24,1.21Z"/>
      </g>
    </g>
    <g>
      <circle class="cls-6" cx="9.12" cy="20.4" r="5.62"/>
      <g>
        <path class="cls-3" d="M5.99,17.23c-.31.28.16,1.43.87,2.16.7.71,1.82,1.18,2.1.89.27-.28-.24-1.25-.74-1.83-.72-.85-1.91-1.51-2.24-1.21Z"/>
        <path class="cls-3" d="M9.25,20.27c.28.31,1.43-.16,2.16-.87.71-.7,1.18-1.82.89-2.1-.28-.27-1.25.24-1.83.74-.85.72-1.51,1.91-1.21,2.24Z"/>
        <path class="cls-3" d="M9,20.57c-.28-.31-1.43.16-2.16.87-.71.7-1.18,1.82-.89,2.1.28.27,1.25-.24,1.83-.74.85-.72,1.51-1.91,1.21-2.24Z"/>
        <path class="cls-3" d="M12.26,23.58c.31-.28-.16-1.43-.87-2.16-.7-.71-1.82-1.18-2.1-.89-.27.28.24,1.25.74,1.83.72.85,1.91,1.51,2.24,1.21Z"/>
      </g>
    </g>
  </g>
</svg>