<?xml version="1.0" encoding="UTF-8"?>
<svg id="Layer_1" data-name="Layer 1" xmlns="http://www.w3.org/2000/svg" viewBox="0 0 31.75 46.91">
  <defs>
    <style>
      .cls-1 {
        fill: #f3fafb;
      }

      .cls-2 {
        font-family: STIXTwoText, 'STIX Two Text';
        font-size: 12px;
        font-variation-settings: 'wght' 400;
      }

      .cls-2, .cls-3 {
        fill: #e664a5;
      }

      .cls-4, .cls-5, .cls-6 {
        fill: #f1f9fb;
      }

      .cls-5 {
        stroke: #e665a6;
      }

      .cls-6 {
        stroke: #447cbf;
        stroke-width: .75px;
      }

      .cls-7 {
        fill: #53bd8d;
      }
    </style>
  </defs>
  <rect class="cls-5" x=".5" y=".5" width="30.75" height="45.91" rx="3.87" ry="3.87"/>
  <rect class="cls-6" x="1.74" y="1.63" width="28.27" height="43.65" rx="3.09" ry="3.09"/>
  <text class="cls-2" transform="translate(12.9 11.34)"><tspan x="0" y="0">6</tspan></text>
  <text/>
  <g>
    <circle class="cls-3" cx="22.54" cy="38.43" r="5.63"/>
    <g>
      <path class="cls-4" d="M19.4,35.26c-.31.28.16,1.43.87,2.16.7.71,1.82,1.18,2.1.89.27-.28-.24-1.25-.74-1.83-.72-.85-1.91-1.51-2.24-1.21Z"/>
      <path class="cls-4" d="M22.66,38.3c.28.31,1.43-.16,2.16-.87.71-.7,1.18-1.82.89-2.1-.28-.27-1.25.24-1.83.74-.85.72-1.51,1.91-1.21,2.24Z"/>
      <path class="cls-4" d="M22.41,38.6c-.28-.31-1.43.16-2.16.87-.71.7-1.18,1.82-.89,2.1.28.27,1.25-.24,1.83-.74.85-.72,1.51-1.91,1.21-2.24Z"/>
      <path class="cls-4" d="M25.67,41.61c.31-.28-.16-1.43-.87-2.16-.7-.71-1.82-1.18-2.1-.89-.27.28.24,1.25.74,1.83.72.85,1.91,1.51,2.24,1.21Z"/>
    </g>
  </g>
  <g>
    <circle class="cls-7" cx="22.62" cy="14.4" r="5.62"/>
    <g>
      <path class="cls-4" d="M19.49,11.23c-.31.28.16,1.43.87,2.16.7.71,1.82,1.18,2.1.89.27-.28-.24-1.25-.74-1.83-.72-.85-1.91-1.51-2.24-1.21Z"/>
      <path class="cls-4" d="M22.75,14.27c.28.31,1.43-.16,2.16-.87.71-.7,1.18-1.82.89-2.1-.28-.27-1.25.24-1.83.74-.85.72-1.51,1.91-1.21,2.24Z"/>
      <path class="cls-4" d="M22.5,14.57c-.28-.31-1.43.16-2.16.87-.71.7-1.18,1.82-.89,2.1.28.27,1.25-.24,1.83-.74.85-.72,1.51-1.91,1.21-2.24Z"/>
      <path class="cls-4" d="M25.76,17.58c.31-.28-.16-1.43-.87-2.16-.7-.71-1.82-1.18-2.1-.89-.27.28.24,1.25.74,1.83.72.85,1.91,1.51,2.24,1.21Z"/>
    </g>
  </g>
  <g>
    <circle class="cls-3" cx="9.12" cy="38.43" r="5.62"/>
    <g>
      <path class="cls-4" d="M5.99,35.26c-.31.28.16,1.43.87,2.16.7.71,1.82,1.18,2.1.89.27-.28-.24-1.25-.74-1.83-.72-.85-1.91-1.51-2.24-1.21Z"/>
      <path class="cls-4" d="M9.25,38.3c.28.31,1.43-.16,2.16-.87.71-.7,1.18-1.82.89-2.1-.28-.27-1.25.24-1.83.74-.85.72-1.51,1.91-1.21,2.24Z"/>
      <path class="cls-4" d="M9,38.6c-.28-.31-1.43.16-2.16.87-.71.7-1.18,1.82-.89,2.1.28.27,1.25-.24,1.83-.74.85-.72,1.51-1.91,1.21-2.24Z"/>
      <path class="cls-4" d="M12.26,41.61c.31-.28-.16-1.43-.87-2.16-.7-.71-1.82-1.18-2.1-.89-.27.28.24,1.25.74,1.83.72.85,1.91,1.51,2.24,1.21Z"/>
    </g>
  </g>
  <g>
    <circle class="cls-7" cx="9.12" cy="14.4" r="5.62"/>
    <g>
      <path class="cls-4" d="M5.99,11.23c-.31.28.16,1.43.87,2.16.7.71,1.82,1.18,2.1.89.27-.28-.24-1.25-.74-1.83-.72-.85-1.91-1.51-2.24-1.21Z"/>
      <path class="cls-4" d="M9.25,14.27c.28.31,1.43-.16,2.16-.87.71-.7,1.18-1.82.89-2.1-.28-.27-1.25.24-1.83.74-.85.72-1.51,1.91-1.21,2.24Z"/>
      <path class="cls-4" d="M9,14.57c-.28-.31-1.43.16-2.16.87-.71.7-1.18,1.82-.89,2.1.28.27,1.25-.24,1.83-.74.85-.72,1.51-1.91,1.21-2.24Z"/>
      <path class="cls-4" d="M12.26,17.58c.31-.28-.16-1.43-.87-2.16-.7-.71-1.82-1.18-2.1-.89-.27.28.24,1.25.74,1.83.72.85,1.91,1.51,2.24,1.21Z"/>
    </g>
  </g>
  <g>
    <circle class="cls-3" cx="8.82" cy="26.46" r="5.63"/>
    <g>
      <path class="cls-1" d="M5.69,23.28c-.31.28.16,1.43.87,2.16.7.71,1.82,1.18,2.1.89.27-.28-.24-1.25-.74-1.83-.72-.85-1.91-1.51-2.24-1.21Z"/>
      <path class="cls-1" d="M8.95,26.32c.28.31,1.43-.16,2.16-.87.71-.7,1.18-1.82.89-2.1-.28-.27-1.25.24-1.83.74-.85.72-1.51,1.91-1.21,2.24Z"/>
      <path class="cls-1" d="M8.7,26.62c-.28-.31-1.43.16-2.16.87-.71.7-1.18,1.82-.89,2.1.28.27,1.25-.24,1.83-.74.85-.72,1.51-1.91,1.21-2.24Z"/>
      <path class="cls-1" d="M11.95,29.63c.31-.28-.16-1.43-.87-2.16-.7-.71-1.82-1.18-2.1-.89-.27.28.24,1.25.74,1.83.72.85,1.91,1.51,2.24,1.21Z"/>
    </g>
  </g>
  <g>
    <circle class="cls-3" cx="22.68" cy="26.42" r="5.63"/>
    <g>
      <path class="cls-1" d="M19.54,23.24c-.31.28.16,1.43.87,2.16.7.71,1.82,1.18,2.1.89.27-.28-.24-1.25-.74-1.83-.72-.85-1.91-1.51-2.24-1.21Z"/>
      <path class="cls-1" d="M22.8,26.28c.28.31,1.43-.16,2.16-.87.71-.7,1.18-1.82.89-2.1-.28-.27-1.25.24-1.83.74-.85.72-1.51,1.91-1.21,2.24Z"/>
      <path class="cls-1" d="M22.55,26.58c-.28-.31-1.43.16-2.16.87-.71.7-1.18,1.82-.89,2.1.28.27,1.25-.24,1.83-.74.85-.72,1.51-1.91,1.21-2.24Z"/>
      <path class="cls-1" d="M25.81,29.59c.31-.28-.16-1.43-.87-2.16-.7-.71-1.82-1.18-2.1-.89-.27.28.24,1.25.74,1.83.72.85,1.91,1.51,2.24,1.21Z"/>
    </g>
  </g>
</svg>