<?xml version="1.0" encoding="UTF-8"?>
<svg id="Layer_1" data-name="Layer 1" xmlns="http://www.w3.org/2000/svg" viewBox="0 0 31.75 46.91">
  <defs>
    <style>
      .cls-1 {
        fill: #f3fafb;
      }

      .cls-2 {
        fill: #447cbf;
      }

      .cls-3 {
        font-family: STIXTwoText, 'STIX Two Text';
        font-size: 12px;
        font-variation-settings: 'wght' 400;
      }

      .cls-3, .cls-4 {
        fill: #e664a5;
      }

      .cls-5, .cls-6, .cls-7 {
        fill: #f1f9fb;
      }

      .cls-6 {
        stroke: #e665a6;
      }

      .cls-7 {
        stroke: #447cbf;
        stroke-width: .75px;
      }

      .cls-8 {
        fill: #54be8e;
      }
    </style>
  </defs>
  <rect class="cls-6" x=".5" y=".5" width="30.75" height="45.91" rx="3.87" ry="3.87"/>
  <rect class="cls-7" x="1.74" y="1.63" width="28.27" height="43.65" rx="3.09" ry="3.09"/>
  <text class="cls-3" transform="translate(12.9 11.34)"><tspan x="0" y="0">9</tspan></text>
  <text/>
  <g>
    <g>
      <circle class="cls-2" cx="7.53" cy="19.43" r="3.68"/>
      <path class="cls-1" d="M5.48,17.35c-.2.18.1.94.57,1.41.46.47,1.19.78,1.38.58.18-.19-.16-.82-.48-1.2-.47-.56-1.25-.99-1.46-.8Z"/>
      <path class="cls-1" d="M7.61,19.34c.18.2.94-.1,1.41-.57.47-.46.78-1.19.58-1.38-.19-.18-.82.16-1.2.48-.56.47-.99,1.25-.8,1.46Z"/>
      <path class="cls-1" d="M7.45,19.54c-.18-.2-.94.1-1.41.57-.47.46-.78,1.19-.58,1.38.19.18.82-.16,1.2-.48.56-.47.99-1.25.8-1.46Z"/>
      <path class="cls-1" d="M9.58,21.51c.2-.18-.1-.94-.57-1.41-.46-.47-1.19-.78-1.38-.58-.18.19.16.82.48,1.2.47.56,1.25.99,1.46.8Z"/>
    </g>
    <g>
      <circle class="cls-2" cx="15.88" cy="19.43" r="3.68"/>
      <path class="cls-1" d="M13.83,17.35c-.2.18.1.94.57,1.41.46.47,1.19.78,1.38.58.18-.19-.16-.82-.48-1.2-.47-.56-1.25-.99-1.46-.8Z"/>
      <path class="cls-1" d="M15.96,19.34c.18.2.94-.1,1.41-.57.47-.46.78-1.19.58-1.38-.19-.18-.82.16-1.2.48-.56.47-.99,1.25-.8,1.46Z"/>
      <path class="cls-1" d="M15.8,19.54c-.18-.2-.94.1-1.41.57-.47.46-.78,1.19-.58,1.38.19.18.82-.16,1.2-.48.56-.47.99-1.25.8-1.46Z"/>
      <path class="cls-1" d="M17.93,21.51c.2-.18-.1-.94-.57-1.41-.46-.47-1.19-.78-1.38-.58-.18.19.16.82.48,1.2.47.56,1.25.99,1.46.8Z"/>
    </g>
    <g>
      <circle class="cls-2" cx="24.26" cy="19.43" r="3.68"/>
      <path class="cls-1" d="M22.21,17.35c-.2.18.1.94.57,1.41.46.47,1.19.78,1.38.58.18-.19-.16-.82-.48-1.2-.47-.56-1.25-.99-1.46-.8Z"/>
      <path class="cls-1" d="M24.34,19.34c.18.2.94-.1,1.41-.57.47-.46.78-1.19.58-1.38-.19-.18-.82.16-1.2.48-.56.47-.99,1.25-.8,1.46Z"/>
      <path class="cls-1" d="M24.18,19.54c-.18-.2-.94.1-1.41.57-.47.46-.78,1.19-.58,1.38.19.18.82-.16,1.2-.48.56-.47.99-1.25.8-1.46Z"/>
      <path class="cls-1" d="M26.31,21.51c.2-.18-.1-.94-.57-1.41-.46-.47-1.19-.78-1.38-.58-.18.19.16.82.48,1.2.47.56,1.25.99,1.46.8Z"/>
    </g>
  </g>
  <g>
    <g>
      <circle class="cls-4" cx="24.26" cy="28.24" r="3.68"/>
      <path class="cls-1" d="M22.21,26.16c-.2.18.1.94.57,1.41.46.47,1.19.78,1.38.58.18-.19-.16-.82-.48-1.2-.47-.56-1.25-.99-1.46-.8Z"/>
      <path class="cls-1" d="M24.34,28.15c.18.2.94-.1,1.41-.57.47-.46.78-1.19.58-1.38-.19-.18-.82.16-1.2.48-.56.47-.99,1.25-.8,1.46Z"/>
      <path class="cls-1" d="M24.18,28.35c-.18-.2-.94.1-1.41.57-.47.46-.78,1.19-.58,1.38.19.18.82-.16,1.2-.48.56-.47.99-1.25.8-1.46Z"/>
      <path class="cls-1" d="M26.31,30.32c.2-.18-.1-.94-.57-1.41-.46-.47-1.19-.78-1.38-.58-.18.19.16.82.48,1.2.47.56,1.25.99,1.46.8Z"/>
    </g>
    <g>
      <circle class="cls-4" cx="15.88" cy="28.24" r="3.68"/>
      <path class="cls-1" d="M13.83,26.16c-.2.18.1.94.57,1.41.46.47,1.19.78,1.38.58.18-.19-.16-.82-.48-1.2-.47-.56-1.25-.99-1.46-.8Z"/>
      <path class="cls-1" d="M15.96,28.15c.18.2.94-.1,1.41-.57.47-.46.78-1.19.58-1.38-.19-.18-.82.16-1.2.48-.56.47-.99,1.25-.8,1.46Z"/>
      <path class="cls-1" d="M15.8,28.35c-.18-.2-.94.1-1.41.57-.47.46-.78,1.19-.58,1.38.19.18.82-.16,1.2-.48.56-.47.99-1.25.8-1.46Z"/>
      <path class="cls-1" d="M17.93,30.32c.2-.18-.1-.94-.57-1.41-.46-.47-1.19-.78-1.38-.58-.18.19.16.82.48,1.2.47.56,1.25.99,1.46.8Z"/>
    </g>
    <g>
      <circle class="cls-4" cx="7.53" cy="28.24" r="3.68"/>
      <path class="cls-1" d="M5.48,26.16c-.2.18.1.94.57,1.41.46.47,1.19.78,1.38.58.18-.19-.16-.82-.48-1.2-.47-.56-1.25-.99-1.46-.8Z"/>
      <path class="cls-1" d="M7.61,28.15c.18.2.94-.1,1.41-.57.47-.46.78-1.19.58-1.38-.19-.18-.82.16-1.2.48-.56.47-.99,1.25-.8,1.46Z"/>
      <path class="cls-1" d="M7.45,28.35c-.18-.2-.94.1-1.41.57-.47.46-.78,1.19-.58,1.38.19.18.82-.16,1.2-.48.56-.47.99-1.25.8-1.46Z"/>
      <path class="cls-1" d="M9.58,30.32c.2-.18-.1-.94-.57-1.41-.46-.47-1.19-.78-1.38-.58-.18.19.16.82.48,1.2.47.56,1.25.99,1.46.8Z"/>
    </g>
  </g>
  <g>
    <g>
      <circle class="cls-8" cx="7.53" cy="37.29" r="3.68"/>
      <path class="cls-5" d="M5.48,35.21c-.2.18.1.94.57,1.41.46.47,1.19.78,1.38.58.18-.19-.16-.82-.48-1.2-.47-.56-1.25-.99-1.46-.8Z"/>
      <path class="cls-5" d="M7.61,37.2c.18.2.94-.1,1.41-.57.47-.46.78-1.19.58-1.38-.19-.18-.82.16-1.2.48-.56.47-.99,1.25-.8,1.46Z"/>
      <path class="cls-5" d="M7.45,37.4c-.18-.2-.94.1-1.41.57-.47.46-.78,1.19-.58,1.38.19.18.82-.16,1.2-.48.56-.47.99-1.25.8-1.46Z"/>
      <path class="cls-5" d="M9.58,39.37c.2-.18-.1-.94-.57-1.41-.46-.47-1.19-.78-1.38-.58-.18.19.16.82.48,1.2.47.56,1.25.99,1.46.8Z"/>
    </g>
    <g>
      <circle class="cls-8" cx="15.88" cy="37.29" r="3.68"/>
      <path class="cls-5" d="M13.83,35.21c-.2.18.1.94.57,1.41.46.47,1.19.78,1.38.58.18-.19-.16-.82-.48-1.2-.47-.56-1.25-.99-1.46-.8Z"/>
      <path class="cls-5" d="M15.96,37.2c.18.2.94-.1,1.41-.57.47-.46.78-1.19.58-1.38-.19-.18-.82.16-1.2.48-.56.47-.99,1.25-.8,1.46Z"/>
      <path class="cls-5" d="M15.8,37.4c-.18-.2-.94.1-1.41.57-.47.46-.78,1.19-.58,1.38.19.18.82-.16,1.2-.48.56-.47.99-1.25.8-1.46Z"/>
      <path class="cls-5" d="M17.93,39.37c.2-.18-.1-.94-.57-1.41-.46-.47-1.19-.78-1.38-.58-.18.19.16.82.48,1.2.47.56,1.25.99,1.46.8Z"/>
    </g>
    <g>
      <circle class="cls-8" cx="24.26" cy="37.29" r="3.68"/>
      <path class="cls-5" d="M22.21,35.21c-.2.18.1.94.57,1.41.46.47,1.19.78,1.38.58.18-.19-.16-.82-.48-1.2-.47-.56-1.25-.99-1.46-.8Z"/>
      <path class="cls-5" d="M24.34,37.2c.18.2.94-.1,1.41-.57.47-.46.78-1.19.58-1.38-.19-.18-.82.16-1.2.48-.56.47-.99,1.25-.8,1.46Z"/>
      <path class="cls-5" d="M24.18,37.4c-.18-.2-.94.1-1.41.57-.47.46-.78,1.19-.58,1.38.19.18.82-.16,1.2-.48.56-.47.99-1.25.8-1.46Z"/>
      <path class="cls-5" d="M26.31,39.37c.2-.18-.1-.94-.57-1.41-.46-.47-1.19-.78-1.38-.58-.18.19.16.82.48,1.2.47.56,1.25.99,1.46.8Z"/>
    </g>
  </g>
</svg>