<?xml version="1.0" encoding="UTF-8"?>
<svg id="Layer_1" data-name="Layer 1" xmlns="http://www.w3.org/2000/svg" viewBox="0 0 31.75 46.91">
  <defs>
    <style>
      .cls-1 {
        fill: #f3fafb;
      }

      .cls-2 {
        font-family: STIXTwoText, 'STIX Two Text';
        font-size: 12px;
        font-variation-settings: 'wght' 400;
      }

      .cls-2, .cls-3 {
        fill: #e664a5;
      }

      .cls-4, .cls-5, .cls-6 {
        fill: #f1f9fb;
      }

      .cls-5 {
        stroke: #e665a6;
      }

      .cls-6 {
        stroke: #447cbf;
        stroke-width: .75px;
      }

      .cls-7 {
        fill: #53bd8d;
      }
    </style>
  </defs>
  <rect class="cls-5" x=".5" y=".5" width="30.75" height="45.91" rx="3.87" ry="3.87"/>
  <rect class="cls-6" x="1.74" y="1.63" width="28.27" height="43.65" rx="3.09" ry="3.09"/>
  <text class="cls-2" transform="translate(12.9 11.34)"><tspan x="0" y="0">7</tspan></text>
  <text/>
  <g>
    <circle class="cls-3" cx="21.63" cy="38.56" r="4.53"/>
    <g>
      <path class="cls-4" d="M19.11,36c-.25.22.13,1.16.7,1.74.57.57,1.47.95,1.69.72.22-.23-.2-1.01-.59-1.48-.58-.68-1.54-1.22-1.8-.98Z"/>
      <path class="cls-4" d="M21.73,38.45c.22.25,1.16-.13,1.74-.7.57-.57.95-1.47.72-1.69-.23-.22-1.01.2-1.48.59-.68.58-1.22,1.54-.98,1.8Z"/>
      <path class="cls-4" d="M21.53,38.69c-.22-.25-1.16.13-1.74.7-.57.57-.95,1.47-.72,1.69.23.22,1.01-.2,1.48-.59.68-.58,1.22-1.54.98-1.8Z"/>
      <path class="cls-4" d="M24.16,41.12c.25-.22-.13-1.16-.7-1.74-.57-.57-1.47-.95-1.69-.72-.22.23.2,1.01.59,1.48.58.68,1.54,1.22,1.8.98Z"/>
    </g>
  </g>
  <g>
    <circle class="cls-7" cx="24.35" cy="19.4" r="4.38"/>
    <g>
      <path class="cls-4" d="M21.91,16.92c-.24.22.12,1.12.68,1.68.55.56,1.42.92,1.64.69.21-.22-.19-.97-.57-1.43-.56-.66-1.49-1.17-1.74-.95Z"/>
      <path class="cls-4" d="M24.44,19.29c.22.24,1.12-.12,1.68-.68.56-.55.92-1.42.69-1.64-.22-.21-.97.19-1.43.57-.66.56-1.17,1.49-.95,1.74Z"/>
      <path class="cls-4" d="M24.25,19.53c-.22-.24-1.12.12-1.68.68-.56.55-.92,1.42-.69,1.64.22.21.97-.19,1.43-.57.66-.56,1.17-1.49.95-1.74Z"/>
      <path class="cls-4" d="M26.79,21.87c.24-.22-.12-1.12-.68-1.68-.55-.56-1.42-.92-1.64-.69-.21.22.19.97.57,1.43.56.66,1.49,1.17,1.74.95Z"/>
    </g>
  </g>
  <g>
    <circle class="cls-3" cx="10.82" cy="38.56" r="4.53"/>
    <g>
      <path class="cls-4" d="M8.29,36c-.25.22.13,1.16.7,1.74.57.57,1.47.95,1.69.72.22-.23-.2-1.01-.59-1.48-.58-.68-1.54-1.22-1.8-.98Z"/>
      <path class="cls-4" d="M10.92,38.45c.22.25,1.16-.13,1.74-.7.57-.57.95-1.47.72-1.69-.23-.22-1.01.2-1.48.59-.68.58-1.22,1.54-.98,1.8Z"/>
      <path class="cls-4" d="M10.72,38.69c-.22-.25-1.16.13-1.74.7-.57.57-.95,1.47-.72,1.69.23.22,1.01-.2,1.48-.59.68-.58,1.22-1.54.98-1.8Z"/>
      <path class="cls-4" d="M13.34,41.12c.25-.22-.13-1.16-.7-1.74-.57-.57-1.47-.95-1.69-.72-.22.23.2,1.01.59,1.48.58.68,1.54,1.22,1.8.98Z"/>
    </g>
  </g>
  <g>
    <circle class="cls-3" cx="10.57" cy="28.9" r="4.53"/>
    <g>
      <path class="cls-1" d="M8.05,26.34c-.25.22.13,1.16.7,1.74.57.57,1.47.95,1.69.72.22-.23-.2-1.01-.59-1.48-.58-.68-1.54-1.22-1.8-.98Z"/>
      <path class="cls-1" d="M10.67,28.79c.22.25,1.16-.13,1.74-.7.57-.57.95-1.47.72-1.69-.23-.22-1.01.2-1.48.59-.68.58-1.22,1.54-.98,1.8Z"/>
      <path class="cls-1" d="M10.47,29.04c-.22-.25-1.16.13-1.74.7-.57.57-.95,1.47-.72,1.69.23.22,1.01-.2,1.48-.59.68-.58,1.22-1.54.98-1.8Z"/>
      <path class="cls-1" d="M13.1,31.46c.25-.22-.13-1.16-.7-1.74-.57-.57-1.47-.95-1.69-.72-.22.23.2,1.01.59,1.48.58.68,1.54,1.22,1.8.98Z"/>
    </g>
  </g>
  <g>
    <circle class="cls-3" cx="21.74" cy="28.87" r="4.53"/>
    <g>
      <path class="cls-1" d="M19.22,26.31c-.25.22.13,1.16.7,1.74.57.57,1.47.95,1.69.72.22-.23-.2-1.01-.59-1.48-.58-.68-1.54-1.22-1.8-.98Z"/>
      <path class="cls-1" d="M21.84,28.76c.22.25,1.16-.13,1.74-.7.57-.57.95-1.47.72-1.69-.23-.22-1.01.2-1.48.59-.68.58-1.22,1.54-.98,1.8Z"/>
      <path class="cls-1" d="M21.64,29.01c-.22-.25-1.16.13-1.74.7-.57.57-.95,1.47-.72,1.69.23.22,1.01-.2,1.48-.59.68-.58,1.22-1.54.98-1.8Z"/>
      <path class="cls-1" d="M24.27,31.43c.25-.22-.13-1.16-.7-1.74-.57-.57-1.47-.95-1.69-.72-.22.23.2,1.01.59,1.48.58.68,1.54,1.22,1.8.98Z"/>
    </g>
  </g>
  <g>
    <circle class="cls-7" cx="6.98" cy="12.43" r="4.38"/>
    <g>
      <path class="cls-4" d="M4.54,9.96c-.24.22.12,1.12.68,1.68.55.56,1.42.92,1.64.69.21-.22-.19-.97-.57-1.43-.56-.66-1.49-1.17-1.74-.95Z"/>
      <path class="cls-4" d="M7.08,12.33c.22.24,1.12-.12,1.68-.68.56-.55.92-1.42.69-1.64-.22-.21-.97.19-1.43.57-.66.56-1.17,1.49-.95,1.74Z"/>
      <path class="cls-4" d="M6.89,12.56c-.22-.24-1.12.12-1.68.68-.56.55-.92,1.42-.69,1.64.22.21.97-.19,1.43-.57.66-.56,1.17-1.49.95-1.74Z"/>
      <path class="cls-4" d="M9.42,14.91c.24-.22-.12-1.12-.68-1.68-.55-.56-1.42-.92-1.64-.69-.21.22.19.97.57,1.43.56.66,1.49,1.17,1.74.95Z"/>
    </g>
  </g>
  <g>
    <circle class="cls-7" cx="15.35" cy="16.3" r="4.38"/>
    <g>
      <path class="cls-4" d="M12.91,13.82c-.24.22.12,1.12.68,1.68.55.56,1.42.92,1.64.69.21-.22-.19-.97-.57-1.43-.56-.66-1.49-1.17-1.74-.95Z"/>
      <path class="cls-4" d="M15.45,16.19c.22.24,1.12-.12,1.68-.68.56-.55.92-1.42.69-1.64-.22-.21-.97.19-1.43.57-.66.56-1.17,1.49-.95,1.74Z"/>
      <path class="cls-4" d="M15.26,16.43c-.22-.24-1.12.12-1.68.68-.56.55-.92,1.42-.69,1.64.22.21.97-.19,1.43-.57.66-.56,1.17-1.49.95-1.74Z"/>
      <path class="cls-4" d="M17.79,18.77c.24-.22-.12-1.12-.68-1.68-.55-.56-1.42-.92-1.64-.69-.21.22.19.97.57,1.43.56.66,1.49,1.17,1.74.95Z"/>
    </g>
  </g>
</svg>