<?xml version="1.0" encoding="UTF-8"?>
<svg id="Layer_1" data-name="Layer 1" xmlns="http://www.w3.org/2000/svg" viewBox="0 0 31.75 46.91">
  <defs>
    <style>
      .cls-1 {
        fill: #447cbf;
      }

      .cls-2 {
        font-family: STIXTwoText, 'STIX Two Text';
        font-size: 12px;
        font-variation-settings: 'wght' 400;
      }

      .cls-2, .cls-3 {
        fill: #e664a5;
      }

      .cls-4, .cls-5, .cls-6 {
        fill: #f1f9fb;
      }

      .cls-5 {
        stroke: #e665a6;
      }

      .cls-6 {
        stroke: #447cbf;
        stroke-width: .75px;
      }

      .cls-7 {
        fill: #53bd8d;
      }
    </style>
  </defs>
  <rect class="cls-5" x=".5" y=".5" width="30.75" height="45.91" rx="3.87" ry="3.87"/>
  <rect class="cls-6" x="1.74" y="1.63" width="28.27" height="43.65" rx="3.09" ry="3.09"/>
  <text class="cls-2" transform="translate(12.9 11.34)"><tspan x="0" y="0">3</tspan></text>
  <text/>
  <g>
    <circle class="cls-1" cx="8.55" cy="19.22" r="5.62"/>
    <g>
      <path class="cls-4" d="M5.42,16.04c-.31.28.16,1.43.87,2.16.7.71,1.82,1.18,2.1.89.27-.28-.24-1.25-.74-1.83-.72-.85-1.91-1.51-2.24-1.21Z"/>
      <path class="cls-4" d="M8.67,19.08c.28.31,1.43-.16,2.16-.87.71-.7,1.18-1.82.89-2.1-.28-.27-1.25.24-1.83.74-.85.72-1.51,1.91-1.21,2.24Z"/>
      <path class="cls-4" d="M8.43,19.38c-.28-.31-1.43.16-2.16.87-.71.7-1.18,1.82-.89,2.1.28.27,1.25-.24,1.83-.74.85-.72,1.51-1.91,1.21-2.24Z"/>
      <path class="cls-4" d="M11.68,22.39c.31-.28-.16-1.43-.87-2.16-.7-.71-1.82-1.18-2.1-.89-.27.28.24,1.25.74,1.83.72.85,1.91,1.51,2.24,1.21Z"/>
    </g>
  </g>
  <g>
    <circle class="cls-7" cx="23.85" cy="38.81" r="5.62"/>
    <g>
      <path class="cls-4" d="M20.72,35.64c-.31.28.16,1.43.87,2.16.7.71,1.82,1.18,2.1.89.27-.28-.24-1.25-.74-1.83-.72-.85-1.91-1.51-2.24-1.21Z"/>
      <path class="cls-4" d="M23.97,38.68c.28.31,1.43-.16,2.16-.87.71-.7,1.18-1.82.89-2.1-.28-.27-1.25.24-1.83.74-.85.72-1.51,1.91-1.21,2.24Z"/>
      <path class="cls-4" d="M23.73,38.98c-.28-.31-1.43.16-2.16.87-.71.7-1.18,1.82-.89,2.1.28.27,1.25-.24,1.83-.74.85-.72,1.51-1.91,1.21-2.24Z"/>
      <path class="cls-4" d="M26.98,41.99c.31-.28-.16-1.43-.87-2.16-.7-.71-1.82-1.18-2.1-.89-.27.28.24,1.25.74,1.83.72.85,1.91,1.51,2.24,1.21Z"/>
    </g>
  </g>
  <g>
    <circle class="cls-3" cx="15.87" cy="29.46" r="5.62"/>
    <g>
      <path class="cls-4" d="M12.74,26.28c-.31.28.16,1.43.87,2.16.7.71,1.82,1.18,2.1.89.27-.28-.24-1.25-.74-1.83-.72-.85-1.91-1.51-2.24-1.21Z"/>
      <path class="cls-4" d="M16,29.32c.28.31,1.43-.16,2.16-.87.71-.7,1.18-1.82.89-2.1-.28-.27-1.25.24-1.83.74-.85.72-1.51,1.91-1.21,2.24Z"/>
      <path class="cls-4" d="M15.75,29.62c-.28-.31-1.43.16-2.16.87-.71.7-1.18,1.82-.89,2.1.28.27,1.25-.24,1.83-.74.85-.72,1.51-1.91,1.21-2.24Z"/>
      <path class="cls-4" d="M19.01,32.63c.31-.28-.16-1.43-.87-2.16-.7-.71-1.82-1.18-2.1-.89-.27.28.24,1.25.74,1.83.72.85,1.91,1.51,2.24,1.21Z"/>
    </g>
  </g>
</svg>