<?xml version="1.0" encoding="UTF-8"?>
<svg id="Layer_1" data-name="Layer 1" xmlns="http://www.w3.org/2000/svg" viewBox="0 0 31.75 46.91">
  <defs>
    <style>
      .cls-1 {
        fill: #f3fafb;
      }

      .cls-2 {
        fill: #447cbf;
      }

      .cls-3 {
        fill: #e664a5;
        font-family: STIXTwoText, 'STIX Two Text';
        font-size: 12px;
        font-variation-settings: 'wght' 400;
      }

      .cls-4, .cls-5, .cls-6 {
        fill: #f1f9fb;
      }

      .cls-5 {
        stroke: #e665a6;
      }

      .cls-6 {
        stroke: #447cbf;
        stroke-width: .75px;
      }
    </style>
  </defs>
  <rect class="cls-5" x=".5" y=".5" width="30.75" height="45.91" rx="3.87" ry="3.87"/>
  <rect class="cls-6" x="1.74" y="1.63" width="28.27" height="43.65" rx="3.09" ry="3.09"/>
  <text class="cls-3" transform="translate(12.9 11.34)"><tspan x="0" y="0">8</tspan></text>
  <text/>
  <circle class="cls-2" cx="20.45" cy="39.68" r="3.68"/>
  <path class="cls-4" d="M18.4,37.6c-.2.18.1.94.57,1.41.46.47,1.19.78,1.38.58.18-.19-.16-.82-.48-1.2-.47-.56-1.25-.99-1.46-.8Z"/>
  <path class="cls-4" d="M20.54,39.59c.18.2.94-.1,1.41-.57.47-.46.78-1.19.58-1.38-.19-.18-.82.16-1.2.48-.56.47-.99,1.25-.8,1.46Z"/>
  <path class="cls-4" d="M20.37,39.79c-.18-.2-.94.1-1.41.57-.47.46-.78,1.19-.58,1.38.19.18.82-.16,1.2-.48.56-.47.99-1.25.8-1.46Z"/>
  <path class="cls-4" d="M22.51,41.76c.2-.18-.1-.94-.57-1.41-.46-.47-1.19-.78-1.38-.58-.18.19.16.82.48,1.2.47.56,1.25.99,1.46.8Z"/>
  <circle class="cls-2" cx="11.29" cy="39.68" r="3.68"/>
  <path class="cls-4" d="M9.24,37.6c-.2.18.1.94.57,1.41.46.47,1.19.78,1.38.58.18-.19-.16-.82-.48-1.2-.47-.56-1.25-.99-1.46-.8Z"/>
  <path class="cls-4" d="M11.38,39.59c.18.2.94-.1,1.41-.57.47-.46.78-1.19.58-1.38-.19-.18-.82.16-1.2.48-.56.47-.99,1.25-.8,1.46Z"/>
  <path class="cls-4" d="M11.21,39.79c-.18-.2-.94.1-1.41.57-.47.46-.78,1.19-.58,1.38.19.18.82-.16,1.2-.48.56-.47.99-1.25.8-1.46Z"/>
  <path class="cls-4" d="M13.35,41.76c.2-.18-.1-.94-.57-1.41-.46-.47-1.19-.78-1.38-.58-.18.19.16.82.48,1.2.47.56,1.25.99,1.46.8Z"/>
  <circle class="cls-2" cx="11.29" cy="31.84" r="3.68"/>
  <path class="cls-1" d="M9.24,29.76c-.2.18.1.94.57,1.41.46.47,1.19.78,1.38.58.18-.19-.16-.82-.48-1.2-.47-.56-1.25-.99-1.46-.8Z"/>
  <path class="cls-1" d="M11.38,31.75c.18.2.94-.1,1.41-.57.47-.46.78-1.19.58-1.38-.19-.18-.82.16-1.2.48-.56.47-.99,1.25-.8,1.46Z"/>
  <path class="cls-1" d="M11.21,31.95c-.18-.2-.94.1-1.41.57-.47.46-.78,1.19-.58,1.38.19.18.82-.16,1.2-.48.56-.47.99-1.25.8-1.46Z"/>
  <path class="cls-1" d="M13.35,33.92c.2-.18-.1-.94-.57-1.41-.46-.47-1.19-.78-1.38-.58-.18.19.16.82.48,1.2.47.56,1.25.99,1.46.8Z"/>
  <circle class="cls-2" cx="20.45" cy="31.81" r="3.68"/>
  <path class="cls-1" d="M18.4,29.73c-.2.18.1.94.57,1.41.46.47,1.19.78,1.38.58.18-.19-.16-.82-.48-1.2-.47-.56-1.25-.99-1.46-.8Z"/>
  <path class="cls-1" d="M20.54,31.72c.18.2.94-.1,1.41-.57.47-.46.78-1.19.58-1.38-.19-.18-.82.16-1.2.48-.56.47-.99,1.25-.8,1.46Z"/>
  <path class="cls-1" d="M20.37,31.92c-.18-.2-.94.1-1.41.57-.47.46-.78,1.19-.58,1.38.19.18.82-.16,1.2-.48.56-.47.99-1.25.8-1.46Z"/>
  <path class="cls-1" d="M22.51,33.89c.2-.18-.1-.94-.57-1.41-.46-.47-1.19-.78-1.38-.58-.18.19.16.82.48,1.2.47.56,1.25.99,1.46.8Z"/>
  <circle class="cls-2" cx="20.45" cy="23.94" r="3.68"/>
  <path class="cls-1" d="M18.4,21.86c-.2.18.1.94.57,1.41.46.47,1.19.78,1.38.58.18-.19-.16-.82-.48-1.2-.47-.56-1.25-.99-1.46-.8Z"/>
  <path class="cls-1" d="M20.54,23.85c.18.2.94-.1,1.41-.57.47-.46.78-1.19.58-1.38-.19-.18-.82.16-1.2.48-.56.47-.99,1.25-.8,1.46Z"/>
  <path class="cls-1" d="M20.37,24.05c-.18-.2-.94.1-1.41.57-.47.46-.78,1.19-.58,1.38.19.18.82-.16,1.2-.48.56-.47.99-1.25.8-1.46Z"/>
  <path class="cls-1" d="M22.51,26.02c.2-.18-.1-.94-.57-1.41-.46-.47-1.19-.78-1.38-.58-.18.19.16.82.48,1.2.47.56,1.25.99,1.46.8Z"/>
  <circle class="cls-2" cx="20.45" cy="16.07" r="3.68"/>
  <path class="cls-1" d="M18.4,13.99c-.2.18.1.94.57,1.41.46.47,1.19.78,1.38.58.18-.19-.16-.82-.48-1.2-.47-.56-1.25-.99-1.46-.8Z"/>
  <path class="cls-1" d="M20.54,15.98c.18.2.94-.1,1.41-.57.47-.46.78-1.19.58-1.38-.19-.18-.82.16-1.2.48-.56.47-.99,1.25-.8,1.46Z"/>
  <path class="cls-1" d="M20.37,16.18c-.18-.2-.94.1-1.41.57-.47.46-.78,1.19-.58,1.38.19.18.82-.16,1.2-.48.56-.47.99-1.25.8-1.46Z"/>
  <path class="cls-1" d="M22.51,18.15c.2-.18-.1-.94-.57-1.41-.46-.47-1.19-.78-1.38-.58-.18.19.16.82.48,1.2.47.56,1.25.99,1.46.8Z"/>
  <circle class="cls-2" cx="11.29" cy="23.99" r="3.68"/>
  <path class="cls-1" d="M9.24,21.91c-.2.18.1.94.57,1.41.46.47,1.19.78,1.38.58.18-.19-.16-.82-.48-1.2-.47-.56-1.25-.99-1.46-.8Z"/>
  <path class="cls-1" d="M11.38,23.9c.18.2.94-.1,1.41-.57.47-.46.78-1.19.58-1.38-.19-.18-.82.16-1.2.48-.56.47-.99,1.25-.8,1.46Z"/>
  <path class="cls-1" d="M11.21,24.1c-.18-.2-.94.1-1.41.57-.47.46-.78,1.19-.58,1.38.19.18.82-.16,1.2-.48.56-.47.99-1.25.8-1.46Z"/>
  <path class="cls-1" d="M13.35,26.07c.2-.18-.1-.94-.57-1.41-.46-.47-1.19-.78-1.38-.58-.18.19.16.82.48,1.2.47.56,1.25.99,1.46.8Z"/>
  <circle class="cls-2" cx="11.29" cy="16.14" r="3.68"/>
  <path class="cls-1" d="M9.24,14.06c-.2.18.1.94.57,1.41.46.47,1.19.78,1.38.58.18-.19-.16-.82-.48-1.2-.47-.56-1.25-.99-1.46-.8Z"/>
  <path class="cls-1" d="M11.38,16.06c.18.2.94-.1,1.41-.57.47-.46.78-1.19.58-1.38-.19-.18-.82.16-1.2.48-.56.47-.99,1.25-.8,1.46Z"/>
  <path class="cls-1" d="M11.21,16.25c-.18-.2-.94.1-1.41.57-.47.46-.78,1.19-.58,1.38.19.18.82-.16,1.2-.48.56-.47.99-1.25.8-1.46Z"/>
  <path class="cls-1" d="M13.35,18.23c.2-.18-.1-.94-.57-1.41-.46-.47-1.19-.78-1.38-.58-.18.19.16.82.48,1.2.47.56,1.25.99,1.46.8Z"/>
</svg>