<?xml version="1.0" encoding="UTF-8"?>
<svg id="Layer_1" data-name="Layer 1" xmlns="http://www.w3.org/2000/svg" viewBox="0 0 31.75 46.91">
  <defs>
    <style>
      .cls-1 {
        fill: #447cbf;
      }

      .cls-2 {
        fill: #e664a5;
        font-family: STIXTwoText, 'STIX Two Text';
        font-size: 12px;
        font-variation-settings: 'wght' 400;
      }

      .cls-3, .cls-4, .cls-5 {
        fill: #f1f9fb;
      }

      .cls-4 {
        stroke: #e665a6;
      }

      .cls-5 {
        stroke: #447cbf;
        stroke-width: .75px;
      }

      .cls-6 {
        fill: #53bd8d;
      }
    </style>
  </defs>
  <rect class="cls-4" x=".5" y=".5" width="30.75" height="45.91" rx="3.87" ry="3.87"/>
  <rect class="cls-5" x="1.74" y="1.63" width="28.27" height="43.65" rx="3.09" ry="3.09"/>
  <text class="cls-2" transform="translate(12.9 11.34)"><tspan x="0" y="0">2</tspan></text>
  <text/>
  <circle class="cls-1" cx="15.98" cy="20.71" r="6.75"/>
  <g>
    <path class="cls-3" d="M12.22,16.9c-.37.33.19,1.72,1.05,2.59.84.86,2.18,1.42,2.52,1.07.33-.34-.29-1.5-.88-2.2-.86-1.02-2.3-1.81-2.68-1.46Z"/>
    <path class="cls-3" d="M16.13,20.55c.33.37,1.72-.19,2.59-1.05.86-.84,1.42-2.18,1.07-2.52-.34-.33-1.5.29-2.2.88-1.02.86-1.81,2.3-1.46,2.68Z"/>
    <path class="cls-3" d="M15.83,20.91c-.33-.37-1.72.19-2.59,1.05-.86.84-1.42,2.18-1.07,2.52.34.33,1.5-.29,2.2-.88,1.02-.86,1.81-2.3,1.46-2.68Z"/>
    <path class="cls-3" d="M19.74,24.52c.37-.33-.19-1.72-1.05-2.59-.84-.86-2.18-1.42-2.52-1.07-.33.34.29,1.5.88,2.2.86,1.02,2.3,1.81,2.68,1.46Z"/>
  </g>
  <circle class="cls-6" cx="16.08" cy="35.87" r="6.75"/>
  <g>
    <path class="cls-3" d="M12.32,32.06c-.37.33.19,1.72,1.05,2.59.84.86,2.18,1.42,2.52,1.07.33-.34-.29-1.5-.88-2.2-.86-1.02-2.3-1.81-2.68-1.46Z"/>
    <path class="cls-3" d="M16.23,35.71c.33.37,1.72-.19,2.59-1.05.86-.84,1.42-2.18,1.07-2.52-.34-.33-1.5.29-2.2.88-1.02.86-1.81,2.3-1.46,2.68Z"/>
    <path class="cls-3" d="M15.93,36.07c-.33-.37-1.72.19-2.59,1.05-.86.84-1.42,2.18-1.07,2.52.34.33,1.5-.29,2.2-.88,1.02-.86,1.81-2.3,1.46-2.68Z"/>
    <path class="cls-3" d="M19.84,39.68c.37-.33-.19-1.72-1.05-2.59-.84-.86-2.18-1.42-2.52-1.07-.33.34.29,1.5.88,2.2.86,1.02,2.3,1.81,2.68,1.46Z"/>
  </g>
</svg>