<?xml version="1.0" encoding="UTF-8"?>
<svg id="Layer_1" data-name="Layer 1" xmlns="http://www.w3.org/2000/svg" viewBox="0 0 31.75 46.91">
  <defs>
    <style>
      .cls-1 {
        fill: #f3fafb;
      }

      .cls-2 {
        fill: #447cbf;
      }

      .cls-3 {
        font-family: STIXTwoText, 'STIX Two Text';
        font-size: 12px;
        font-variation-settings: 'wght' 400;
      }

      .cls-3, .cls-4 {
        fill: #e664a5;
      }

      .cls-5, .cls-6, .cls-7 {
        fill: #f1f9fb;
      }

      .cls-6 {
        stroke: #e665a6;
      }

      .cls-7 {
        stroke: #447cbf;
        stroke-width: .75px;
      }

      .cls-8 {
        fill: #53bd8d;
      }
    </style>
  </defs>
  <rect class="cls-6" x=".5" y=".5" width="30.75" height="45.91" rx="3.87" ry="3.87"/>
  <rect class="cls-7" x="1.74" y="1.63" width="28.27" height="43.65" rx="3.09" ry="3.09"/>
  <text class="cls-3" transform="translate(12.9 11.34)"><tspan x="0" y="0">5</tspan></text>
  <text/>
  <g>
    <g>
      <circle class="cls-8" cx="22.62" cy="37.51" r="5.63"/>
      <g>
        <path class="cls-5" d="M19.49,34.33c-.31.28.16,1.43.87,2.16.7.71,1.82,1.18,2.1.89.27-.28-.24-1.25-.74-1.83-.72-.85-1.91-1.51-2.24-1.21Z"/>
        <path class="cls-5" d="M22.75,37.37c.28.31,1.43-.16,2.16-.87.71-.7,1.18-1.82.89-2.1-.28-.27-1.25.24-1.83.74-.85.72-1.51,1.91-1.21,2.24Z"/>
        <path class="cls-5" d="M22.5,37.68c-.28-.31-1.43.16-2.16.87-.71.7-1.18,1.82-.89,2.1.28.27,1.25-.24,1.83-.74.85-.72,1.51-1.91,1.21-2.24Z"/>
        <path class="cls-5" d="M25.76,40.68c.31-.28-.16-1.43-.87-2.16-.7-.71-1.82-1.18-2.1-.89-.27.28.24,1.25.74,1.83.72.85,1.91,1.51,2.24,1.21Z"/>
      </g>
    </g>
    <g>
      <circle class="cls-2" cx="22.62" cy="18.4" r="5.62"/>
      <g>
        <path class="cls-5" d="M19.49,15.23c-.31.28.16,1.43.87,2.16.7.71,1.82,1.18,2.1.89.27-.28-.24-1.25-.74-1.83-.72-.85-1.91-1.51-2.24-1.21Z"/>
        <path class="cls-5" d="M22.75,18.27c.28.31,1.43-.16,2.16-.87.71-.7,1.18-1.82.89-2.1-.28-.27-1.25.24-1.83.74-.85.72-1.51,1.91-1.21,2.24Z"/>
        <path class="cls-5" d="M22.5,18.57c-.28-.31-1.43.16-2.16.87-.71.7-1.18,1.82-.89,2.1.28.27,1.25-.24,1.83-.74.85-.72,1.51-1.91,1.21-2.24Z"/>
        <path class="cls-5" d="M25.76,21.58c.31-.28-.16-1.43-.87-2.16-.7-.71-1.82-1.18-2.1-.89-.27.28.24,1.25.74,1.83.72.85,1.91,1.51,2.24,1.21Z"/>
      </g>
    </g>
    <g>
      <circle class="cls-2" cx="9.12" cy="37.51" r="5.62"/>
      <g>
        <path class="cls-5" d="M5.99,34.33c-.31.28.16,1.43.87,2.16.7.71,1.82,1.18,2.1.89.27-.28-.24-1.25-.74-1.83-.72-.85-1.91-1.51-2.24-1.21Z"/>
        <path class="cls-5" d="M9.25,37.37c.28.31,1.43-.16,2.16-.87.71-.7,1.18-1.82.89-2.1-.28-.27-1.25.24-1.83.74-.85.72-1.51,1.91-1.21,2.24Z"/>
        <path class="cls-5" d="M9,37.68c-.28-.31-1.43.16-2.16.87-.71.7-1.18,1.82-.89,2.1.28.27,1.25-.24,1.83-.74.85-.72,1.51-1.91,1.21-2.24Z"/>
        <path class="cls-5" d="M12.26,40.68c.31-.28-.16-1.43-.87-2.16-.7-.71-1.82-1.18-2.1-.89-.27.28.24,1.25.74,1.83.72.85,1.91,1.51,2.24,1.21Z"/>
      </g>
    </g>
    <g>
      <circle class="cls-8" cx="9.12" cy="18.4" r="5.62"/>
      <g>
        <path class="cls-5" d="M5.99,15.23c-.31.28.16,1.43.87,2.16.7.71,1.82,1.18,2.1.89.27-.28-.24-1.25-.74-1.83-.72-.85-1.91-1.51-2.24-1.21Z"/>
        <path class="cls-5" d="M9.25,18.27c.28.31,1.43-.16,2.16-.87.71-.7,1.18-1.82.89-2.1-.28-.27-1.25.24-1.83.74-.85.72-1.51,1.91-1.21,2.24Z"/>
        <path class="cls-5" d="M9,18.57c-.28-.31-1.43.16-2.16.87-.71.7-1.18,1.82-.89,2.1.28.27,1.25-.24,1.83-.74.85-.72,1.51-1.91,1.21-2.24Z"/>
        <path class="cls-5" d="M12.26,21.58c.31-.28-.16-1.43-.87-2.16-.7-.71-1.82-1.18-2.1-.89-.27.28.24,1.25.74,1.83.72.85,1.91,1.51,2.24,1.21Z"/>
      </g>
    </g>
    <g>
      <circle class="cls-4" cx="15.87" cy="27.92" r="5.63"/>
      <g>
        <path class="cls-1" d="M12.74,24.75c-.31.28.16,1.43.87,2.16.7.71,1.82,1.18,2.1.89.27-.28-.24-1.25-.74-1.83-.72-.85-1.91-1.51-2.24-1.21Z"/>
        <path class="cls-1" d="M16,27.79c.28.31,1.43-.16,2.16-.87.71-.7,1.18-1.82.89-2.1-.28-.27-1.25.24-1.83.74-.85.72-1.51,1.91-1.21,2.24Z"/>
        <path class="cls-1" d="M15.75,28.09c-.28-.31-1.43.16-2.16.87-.71.7-1.18,1.82-.89,2.1.28.27,1.25-.24,1.83-.74.85-.72,1.51-1.91,1.21-2.24Z"/>
        <path class="cls-1" d="M19.01,31.1c.31-.28-.16-1.43-.87-2.16-.7-.71-1.82-1.18-2.1-.89-.27.28.24,1.25.74,1.83.72.85,1.91,1.51,2.24,1.21Z"/>
      </g>
    </g>
  </g>
</svg>