<?xml version="1.0" encoding="UTF-8"?>
<svg id="Layer_1" data-name="Layer 1" xmlns="http://www.w3.org/2000/svg" viewBox="0 0 31.75 46.91">
  <defs>
    <style>
      .cls-1 {
        fill: #447cbf;
      }

      .cls-2 {
        fill: #3a92cf;
      }

      .cls-3, .cls-4, .cls-5 {
        fill: #f1f9fb;
      }

      .cls-4 {
        stroke: #e665a6;
      }

      .cls-6 {
        fill: #e664a5;
        font-family: STIXTwoText, 'STIX Two Text';
        font-size: 9px;
        font-variation-settings: 'wght' 400;
      }

      .cls-5 {
        stroke: #447cbf;
        stroke-width: .75px;
      }

      .cls-7 {
        fill: #d7eff4;
      }

      .cls-8 {
        fill: #e565a6;
      }

      .cls-9 {
        fill: #dfaace;
      }

      .cls-10 {
        fill: #fbd8e7;
      }

      .cls-11 {
        letter-spacing: 0em;
      }

      .cls-12 {
        fill: #2584c2;
      }
    </style>
  </defs>
  <rect class="cls-4" x=".5" y=".5" width="30.75" height="45.91" rx="3.87" ry="3.87"/>
  <rect class="cls-5" x="1.74" y="1.63" width="28.27" height="43.65" rx="3.09" ry="3.09"/>
  <text class="cls-6" transform="translate(2.5 12.78)"><tspan x="0" y="0">Flo</tspan><tspan class="cls-11" x="12.46" y="0">w</tspan><tspan x="19.16" y="0">er</tspan></text>
  <text/>
  <g>
    <path class="cls-2" d="M15.79,15.45c1.22.98,2.09,2.33,2.5,3.79,1.12-.87,2.49-1.48,3.94-1.62.37,1.21.33,2.52-.08,3.72,1.32-.31,2.74-.34,4.05.05-.24,1.37-.8,2.65-1.76,3.69,1.56.33,2.92,1.22,3.99,2.33-1.01,1.15-2.44,2.06-3.99,2.38.92,1.09,1.5,2.32,1.76,3.69-1.29.4-2.73.37-4.02.03.33,1.23.44,2.51.05,3.74-1.43-.17-2.81-.72-3.89-1.62-.43,1.47-1.31,2.74-2.5,3.74-1.24-.9-2.14-2.31-2.5-3.74-1.12.87-2.49,1.48-3.94,1.62-.39-1.2-.31-2.51.03-3.72-1.29.34-2.65.29-3.94,0,.15-1.34.74-2.75,1.76-3.69-1.11-.29-2.18-.79-3.06-1.49s-1.23-.75-.32-1.57,2.17-1.39,3.38-1.75c-1-.94-1.59-2.32-1.76-3.64.88-.28,1.93-.34,2.85-.28.13,0,1.11.28,1.15.18-.43-1.17-.41-2.45-.11-3.64,1.4.11,2.92.69,3.91,1.64.4-1.5,1.31-2.81,2.5-3.84Z"/>
    <g>
      <path class="cls-12" d="M14.27,29.41c-.77,1.08-1.69,2.07-2.72,2.93-.31.26-.91.51-1.12.71l-.93.35-.13-.4c1.76-.49,2.92-1.64,4.15-2.86.22-.21.51-.73.75-.73Z"/>
      <path class="cls-12" d="M23.91,25.52c-.36.03-.37.15-.64.3-.13.07-.37.12-.48.25-.52.07-1.5.55-2.1.71-.77.2-1.58.32-2.37.46,0-.03,0-.07,0-.1,1.82-.47,3.98-.97,5.43-2.18l.16.56Z"/>
      <path class="cls-2" d="M13.84,19.35c-.41,1.96.23,4.12,1.28,5.82-.03,0-.08,0-.11,0-.75-1.32-1.57-2.83-1.7-4.35,0-.11-.05-.34-.05-.4,0-.11.04-.34.05-.46.06-.4.02-.71.53-.61Z"/>
      <path class="cls-12" d="M18.32,20.06s.05.33.05.35c0,.07-.05.24-.05.35-.12,1.88-.98,2.69-1.6,4.25-.16.22-.08-.02-.05-.08.87-1.67,1.4-3.23,1.17-5.13.41-.17.38-.13.48.25Z"/>
      <path class="cls-12" d="M17.41,29.31c1.18,1.3,2.39,2.74,4.1,3.44-.09.15-.07.41-.27.35-.23-.23-1.06-.55-1.33-.86-.37-.39-.81-.74-1.17-1.14-.51-.56-.9-1.21-1.44-1.75.07-.04.1-.05.11-.05Z"/>
      <path class="cls-1" d="M10.38,21.78c.15.15.58.27.75.4,1.21.97,2.31,2.08,3.2,3.34-.07.05-.1.05-.11.05-1.05-1.29-2.45-2.77-4.05-3.44l.21-.35Z"/>
      <g>
        <path class="cls-3" d="M17.84,19.8c.23,1.91-.3,3.47-1.17,5.13-.03.05-.1.29.05.08,0,.01.15.13-.11.15-.04-.01-.11.01-.16,0,.05-.3.21-.57.32-.86.99-2.58,1.34-5.75-.99-7.79-2.11,2.02-2.03,5.04-1.04,7.56.02.06.12.3.21.28.09.25.18.5.27.76,0,0,0,.02-.11.05-1.05-1.69-1.69-3.86-1.28-5.82.25-1.2,1.01-2.41,2-3.19,1.07.97,1.83,2.24,2,3.64Z"/>
        <path class="cls-7" d="M16.77,24.3c-.11.29-.27.56-.32.86-.45-.1-.77-.13-1.23-.05-.09-.25-.18-.5-.27-.76-.84-2.48-1.18-5.67.88-7.69.8.93,1.36,2.05,1.46,3.26.13,1.48-.24,2.94-.53,4.38Z"/>
        <path class="cls-9" d="M16.77,24.3c.29-1.43.66-2.89.53-4.38-.11-1.22-.67-2.33-1.46-3.26-2.06,2.02-1.72,5.21-.88,7.69-.09.02-.19-.22-.21-.28-.99-2.52-1.07-5.54,1.04-7.56,2.32,2.04,1.98,5.21.99,7.79Z"/>
      </g>
      <g>
        <path class="cls-3" d="M16.61,29.72c.17,0,.05.05.05.05.05.43.42.91.59,1.34.45,1.16.77,2.74.64,3.97-.14,1.34-1.03,2.69-2.05,3.59-1.01-.69-1.87-2.17-2.05-3.34-.29-1.88.25-3.84,1.23-5.46.07.01.11,0,.16.08-.16.21-.23.44-.32.68-.96,2.59-1.39,5.64.99,7.69,2.28-2.06,1.98-5.29.88-7.84-.1-.24-.19-.55-.43-.71.09-.01.24-.03.32-.05Z"/>
        <path class="cls-12" d="M15.02,29.87c-.98,1.62-1.52,3.58-1.23,5.46l-.35.2c-.02-.2-.11-.41-.13-.61-.02-.14.06-.35-.05-.46.06-.13.03-.26.05-.35.12-.48.13-1.01.27-1.49.09-.33,1.19-2.8,1.44-2.76Z"/>
        <path class="cls-12" d="M18.32,34.12c.02.12.04.24.05.35,0,.05,0,.1,0,.15-.23.12.06.47-.48.46.13-1.23-.19-2.81-.64-3.97-.17-.43-.53-.91-.59-1.34.83,1.71,1.31,2.41,1.65,4.35Z"/>
        <path class="cls-9" d="M14.86,30.63c-.64,2.47-1.1,5.59.99,7.54,1.45-1.51,1.66-3.38,1.41-5.34-.1-.8-.39-1.57-.53-2.35,1.11,2.55,1.4,5.78-.88,7.84-2.38-2.04-1.95-5.1-.99-7.69Z"/>
      </g>
      <g>
        <path class="cls-3" d="M13.31,27.8s.04.14.05.2c-.06,0-.05.04-.05.05-2.82.54-6.36,1.91-6.98,4.88,3.16.63,5.88-1.6,7.72-3.77.1.09.26.11.32.25-.03,0-.07,0-.11,0-.24,0-.53.52-.75.73-1.23,1.21-2.39,2.37-4.15,2.86-1.06.3-2.29.47-3.36.13.08-1.12.77-2.18,1.6-2.96,1.46-1.38,3.73-1.99,5.7-2.38Z"/>
        <path class="cls-12" d="M13.31,27.69s0,.07,0,.1c-1.97.38-4.24,1-5.7,2.38-.15-.12-.09.12-.24.1-.46-.06.26-.75.4-.86.11-.09.44-.27.59-.35.08-.05.3-.17.37-.2,1.33-.64,3.11-.96,4.58-1.16Z"/>
        <path class="cls-7" d="M13.9,29.01c-.03.25-.27.46-.43.63-1.71,1.83-4.33,3.53-7.03,3.24.5-1.89,2.46-3.16,4.23-3.92.38-.16,2.56-.8,2.64-.91,0-.01,0-.06.05-.05.06.26.35.8.53,1.01Z"/>
        <path class="cls-9" d="M13.31,28.05c-.07.11-2.26.75-2.64.91-1.78.76-3.73,2.03-4.23,3.92,2.7.29,5.32-1.41,7.03-3.24.16-.17.4-.38.43-.63.02.02.13.12.16.15-1.84,2.17-4.57,4.4-7.72,3.77.62-2.98,4.16-4.34,6.98-4.88Z"/>
      </g>
      <g>
        <path class="cls-3" d="M23.75,24.96c-1.45,1.2-3.61,1.71-5.43,2.18,0-.04-.08-.28-.11-.35.05,0,.05.05.11.05.47.05,2.49-.64,3.01-.86,1.81-.76,3.61-2.08,4.02-4.02-2.07-.5-4.2.52-5.78,1.75l-2.05,2.02s-.09-.09-.11-.1c1.09-1.47,2.68-3.01,4.47-3.64,1.17-.41,2.58-.63,3.78-.23-.22,1.23-.93,2.39-1.92,3.21Z"/>
        <path class="cls-12" d="M21.89,21.98c-1.8.64-3.39,2.18-4.47,3.64-.04-.04-.1-.1-.11-.1.71-1.06,1.64-1.94,2.56-2.83.45-.22.97-.8,1.44-.96.38-.13.5-.19.59.25Z"/>
        <path class="cls-7" d="M18.32,26.83c-.05,0-.06-.05-.11-.05-.12-.37-.36-.73-.64-1.01l1.62-1.52c1.71-1.38,3.71-2.48,6.05-2.3-.9,2.9-4.19,4.01-6.92,4.88Z"/>
        <path class="cls-9" d="M18.32,26.83c2.73-.87,6.02-1.98,6.92-4.88-2.33-.17-4.33.92-6.05,2.3l-1.62,1.52s-.04-.04-.05-.05l2.05-2.02c1.58-1.22,3.71-2.25,5.78-1.75-.41,1.94-2.21,3.26-4.02,4.02-.52.22-2.54.91-3.01.86Z"/>
      </g>
      <g>
        <path class="cls-3" d="M13.47,26.53s-.04.15-.05.2c-.08-.03-.28,0-.32,0-2.72-1.17-6.5-1.53-8.79.68,1.02,1.03,2.53,1.68,4.05,1.64-.14.08-.48.27-.59.35-1.48-.18-2.8-.94-3.83-1.95.81-.93,2.25-1.77,3.52-1.95,2.07-.28,4.11.34,6.02,1.01Z"/>
        <path class="cls-1" d="M8.57,25.06c.08,0,.27,0,.32,0,1.5.12,3.25.83,4.63,1.37-.02.04-.04.06-.05.1-1.91-.67-3.95-1.29-6.02-1.01.04-.37.14-.39.53-.46.15-.02.42,0,.59,0Z"/>
        <path class="cls-7" d="M13.1,26.73s.24-.03.32,0c-.09.32-.13.63-.11.96-1.47.2-3.25.53-4.58,1.16-1.58.08-3.06-.45-4.26-1.39,1.67-1.55,4.18-1.62,6.36-1.29.75.11,1.56.46,2.26.56Z"/>
        <path class="cls-9" d="M13.1,26.73c-.7-.09-1.52-.44-2.26-.56-2.19-.33-4.69-.26-6.36,1.29,1.21.94,2.68,1.47,4.26,1.39-.07.03-.29.16-.37.2-1.52.03-3.02-.61-4.05-1.64,2.29-2.21,6.06-1.86,8.79-.68Z"/>
      </g>
      <path class="cls-3" d="M23.91,25.52c1.12-.08,3.12,1.09,3.78,1.95-1.02,1.02-2.29,1.74-3.78,1.9-1.98.21-3.97-.29-5.75-1.06.03-.08.03-.17.05-.25.04,0,.06.03.11.05-.02.09.23.18.29.2,2.72.97,6.58,1.4,8.71-.89-1.09-1.01-2.52-1.57-4.05-1.59.27-.15.28-.28.64-.3Z"/>
      <path class="cls-12" d="M23.91,29.36c.01.25.05.42-.27.46-.11-.03-.34.02-.48,0-.12-.02-.26.02-.37,0-1.62-.25-3.2-.71-4.69-1.37.02-.04.04-.11.05-.15,1.79.77,3.77,1.27,5.75,1.06Z"/>
      <path class="cls-7" d="M22.79,26.08c1.5-.2,3.23.44,4.37,1.34-2.07,1.99-6.32,1.66-8.84.68-.04-.02-.06-.05-.11-.05.07-.27.12-.52.11-.81.79-.14,1.6-.25,2.37-.46.6-.16,1.58-.64,2.1-.71Z"/>
      <path class="cls-9" d="M23.27,25.82c1.53.02,2.96.58,4.05,1.59-2.12,2.29-5.98,1.85-8.71.89-.06-.02-.31-.12-.29-.2,2.52.98,6.78,1.31,8.84-.68-1.14-.9-2.86-1.54-4.37-1.34.11-.13.35-.18.48-.25Z"/>
      <g>
        <path class="cls-3" d="M10.17,22.13c1.6.67,3,2.15,4.05,3.44-.03.02-.12.11-.16.15h-.05c-1.71-2.29-4.49-4.23-7.59-3.84-.08,1.28,1.19,2.42,2.16,3.19-.17,0-.44-.02-.59,0-.96-.9-1.85-1.99-1.97-3.31,1.28-.4,2.94-.13,4.15.38Z"/>
        <path class="cls-7" d="M14,25.72h.05c-.14.13-.45.54-.53.71-1.39-.53-3.14-1.25-4.63-1.37-1.05-.81-2.16-1.78-2.42-3.09,3.1-.23,5.56,1.74,7.54,3.74Z"/>
        <path class="cls-9" d="M14,25.72c-1.98-2-4.44-3.97-7.54-3.74.27,1.31,1.38,2.27,2.42,3.09-.05,0-.24,0-.32,0-.97-.77-2.24-1.9-2.16-3.19,3.1-.38,5.88,1.56,7.59,3.84Z"/>
      </g>
      <g>
        <path class="cls-3" d="M17.73,29.11c-.04.15.47.75.64.94,1.4,1.55,4.59,3.6,6.84,2.96.23-.07-.05-.8-.13-.99-.38-.89-1.22-1.54-1.92-2.2.14.02.37-.03.48,0,.63.18,2.16,2.61,1.97,3.36-1.37.27-2.83.09-4.1-.43-1.71-.7-2.92-2.14-4.1-3.44.04-.03.28-.26.32-.3,0,.03,0,.07,0,.1Z"/>
        <path class="cls-7" d="M22.79,29.82c1.09.84,2.01,1.71,2.45,3.01-3.01.43-5.75-1.62-7.51-3.72,0-.03,0-.07,0-.1.06-.07.34-.48.37-.56,1.49.65,3.06,1.11,4.69,1.37Z"/>
        <path class="cls-9" d="M22.79,29.82c.11.02.26-.02.37,0,.69.66,1.54,1.31,1.92,2.2.08.19.36.92.13.99-2.25.64-5.44-1.4-6.84-2.96-.17-.19-.68-.79-.64-.94,1.76,2.09,4.5,4.15,7.51,3.72-.44-1.3-1.36-2.17-2.45-3.01Z"/>
      </g>
      <g>
        <path class="cls-3" d="M10.86,33.01c-.07.07-.22.09-.32.23-.32.44-1.02,3.05-.51,3.21.6.18,2.97-1.4,3.22-1.97.11.11.04.32.05.46-.96.89-2.14,1.73-3.54,1.77-.38-.9-.06-2.98.67-3.64.21-.19.81-.45,1.12-.71-.13.3-.47.44-.69.66Z"/>
        <path class="cls-7" d="M14.38,29.41c.81.17.81.52,1.92.35.24.16.32.47.43.71.14.79.43,1.56.53,2.35.25,1.96.04,3.83-1.41,5.34-2.09-1.95-1.62-5.07-.99-7.54.09-.24.16-.47.32-.68-.05-.08-.09-.06-.16-.08-.25-.04-1.35,2.43-1.44,2.76-.14.48-.14,1.01-.27,1.49-.87,1-1.88,1.83-3.22,2.23-.26-1.16.29-2.31.77-3.34.23-.22.56-.36.69-.66,1.02-.87,1.95-1.85,2.72-2.93.03,0,.08,0,.11,0Z"/>
        <path class="cls-9" d="M13.31,34.12c-.03.1,0,.22-.05.35-.25.57-2.62,2.16-3.22,1.97-.51-.16.19-2.77.51-3.21.1-.13.25-.16.32-.23-.49,1.03-1.03,2.18-.77,3.34,1.34-.39,2.35-1.22,3.22-2.23Z"/>
      </g>
      <g>
        <path class="cls-3" d="M21.3,21.72c-.47.16-.99.74-1.44.96.3-.29.62-.49.91-.76.86-.82,1.18-2.36.88-3.49-1.36.18-2.41,1.02-3.28,1.97,0-.02-.05-.32-.05-.35.82-1.06,2.16-1.77,3.54-1.92.41,1.21.07,2.52-.56,3.59Z"/>
        <path class="cls-7" d="M20.77,21.93c-.28.27-.6.47-.91.76-.92.89-1.85,1.78-2.56,2.83-.09-.06-.6-.33-.69-.35.26-.02.1-.14.11-.15.62-1.56,1.48-2.37,1.6-4.25.92-.96,1.87-1.84,3.22-2.23.28,1.16-.26,2.36-.77,3.39Z"/>
        <path class="cls-9" d="M20.77,21.93c.52-1.03,1.05-2.23.77-3.39-1.36.38-2.31,1.26-3.22,2.23,0-.12.06-.29.05-.35.87-.95,1.92-1.8,3.28-1.97.3,1.13-.02,2.67-.88,3.49Z"/>
      </g>
      <g>
        <path class="cls-3" d="M21.25,33.11c.6.59,1,2.88.56,3.64-.85-.04-3.08-1.08-3.44-1.8-.1-.21,0-.28,0-.33s0-.1,0-.15c.85.94,1.91,1.75,3.22,1.97.26-.09.08-1.52.03-1.8-.1-.48-.42-1.43-.91-1.64-.22-.29-.54-.49-.8-.76.27.31,1.1.63,1.33.86Z"/>
        <path class="cls-7" d="M19.92,32.25c.25.27.58.47.8.76.58.79,1.01,2.4.83,3.34-1.34-.36-2.34-1.24-3.22-2.23-.34-1.94-.82-2.64-1.65-4.35,0,0,.12-.06-.05-.05.17-.05.54-.25.69-.35.54.53.93,1.19,1.44,1.75.36.4.8.75,1.17,1.14Z"/>
        <path class="cls-9" d="M18.37,34.47c-.02-.12-.03-.24-.05-.35.89.98,1.88,1.87,3.22,2.23.19-.94-.24-2.55-.83-3.34.49.22.81,1.16.91,1.64.06.28.23,1.7-.03,1.8-1.31-.22-2.37-1.03-3.22-1.97Z"/>
      </g>
      <g>
        <path class="cls-3" d="M13.31,19.95c-.02.12-.05.35-.05.46-.86-.95-1.88-1.75-3.22-1.97-.26.1-.08,1.52-.03,1.8.1.47.45,1.47.91,1.69.08.12.14.14.21.25-.16-.13-.6-.26-.75-.4-.61-.62-1-2.86-.56-3.64,1.38.17,2.54.89,3.49,1.82Z"/>
        <path class="cls-7" d="M13.31,20.81c.13,1.52.95,3.03,1.7,4.35-.17.05-.54.25-.69.35-.88-1.26-1.98-2.37-3.2-3.34-.07-.11-.13-.13-.21-.25-.6-.92-.98-2.32-.83-3.39,1.33.4,2.4,1.24,3.22,2.28Z"/>
        <path class="cls-9" d="M13.26,20.41c0,.06.04.29.05.4-.82-1.04-1.89-1.88-3.22-2.28-.15,1.07.23,2.47.83,3.39-.46-.23-.81-1.22-.91-1.69-.06-.28-.23-1.7.03-1.8,1.34.23,2.36,1.02,3.22,1.97Z"/>
      </g>
      <g>
        <path class="cls-8" d="M16.45,25.16s.12-.01.16,0c.09.03.6.29.69.35,0,0,.06.07.11.1.02.02.07.07.11.1.02.01.04.04.05.05.28.28.52.64.64,1.01.02.08.1.31.11.35,0,.03,0,.07,0,.1.02.29-.04.53-.11.81-.02.08-.02.17-.05.25-.02.04-.04.12-.05.15-.04.08-.31.49-.37.56-.04.04-.28.27-.32.3,0,0-.04,0-.11.05-.15.1-.53.31-.69.35-.08.02-.23.04-.32.05-1.1.17-1.11-.18-1.92-.35-.06-.14-.22-.16-.32-.25-.03-.03-.14-.13-.16-.15-.18-.21-.47-.75-.53-1.01-.01-.06-.05-.17-.05-.2s0-.07,0-.1c-.02-.33.02-.64.11-.96.02-.06.04-.17.05-.2.01-.04.04-.06.05-.1.08-.16.4-.58.53-.71.04-.04.13-.13.16-.15,0,0,.04,0,.11-.05.15-.1.53-.31.69-.35.03,0,.08,0,.11,0,.11-.03.1-.05.11-.05.46-.08.78-.05,1.23.05Z"/>
        <path class="cls-10" d="M15.58,25.22c3.12-.22,3.42,4.18.53,4.45-3.21.31-3.49-4.24-.53-4.45Z"/>
        <path class="cls-3" d="M15.58,25.52c2.72-.21,2.98,3.53.59,3.84-2.86.37-3.16-3.65-.59-3.84Z"/>
      </g>
    </g>
  </g>
</svg>