<?xml version="1.0" encoding="UTF-8"?>
<svg id="Layer_1" data-name="Layer 1" xmlns="http://www.w3.org/2000/svg" viewBox="0 0 31.75 46.91">
  <defs>
    <style>
      .cls-1 {
        fill: #447cbf;
      }

      .cls-2 {
        fill: #fcf8fb;
      }

      .cls-3 {
        stroke: #fcf3f8;
        stroke-width: .1px;
      }

      .cls-3, .cls-4, .cls-5 {
        fill: none;
        stroke-linecap: round;
        stroke-linejoin: round;
      }

      .cls-4 {
        stroke-width: .3px;
      }

      .cls-4, .cls-6 {
        stroke: #447cbf;
      }

      .cls-7 {
        fill: #e564a5;
      }

      .cls-8 {
        stroke: #e665a6;
      }

      .cls-8, .cls-6 {
        fill: #f1f9fb;
      }

      .cls-9 {
        fill: #e664a5;
        font-family: STIXTwoText, 'STIX Two Text';
        font-size: 9px;
        font-variation-settings: 'wght' 400;
      }

      .cls-6 {
        stroke-width: .75px;
      }

      .cls-10 {
        letter-spacing: 0em;
      }

      .cls-11 {
        fill: #f172ab;
      }

      .cls-5 {
        stroke: #f8f8f9;
        stroke-width: .2px;
      }

      .cls-12 {
        letter-spacing: -.03em;
      }

      .cls-13 {
        fill: #53bd8d;
      }

      .cls-14 {
        letter-spacing: 0em;
      }
    </style>
  </defs>
  <rect class="cls-8" x=".5" y=".5" width="30.75" height="45.91" rx="3.87" ry="3.87"/>
  <rect class="cls-6" x="1.74" y="1.63" width="28.27" height="43.65" rx="3.09" ry="3.09"/>
  <text class="cls-9" transform="translate(5.7 12.78)"><tspan class="cls-14" x="0" y="0">J</tspan><tspan x="3.47" y="0">o</tspan><tspan class="cls-12" x="8.1" y="0">k</tspan><tspan class="cls-10" x="12.75" y="0">er</tspan></text>
  <text/>
  <g>
    <path class="cls-13" d="M15.17,34.31c-1.77-8,8.76-13.71,11.73-5.1l-.06.14c-4.79-3.68-7.12-.1-6.36,4.85l-.24.15c-1.69-.09-3.38-.05-5.07-.05Z"/>
    <path class="cls-7" d="M11.2,34.21c.94-3.63-1.37-8.88-5.41-6.09,2.03-4.05,8.34-2.16,9.55,1.58-.33,1.09.05,3.34-.17,4.6"/>
    <path class="cls-7" d="M16.83,21.2c.25-.04,2.39.02,2.45.12-.37.32-1.15.66-1.39,1.09-.47.86-.23,2.55-.3,3.51-.99.64-1.62,1.54-2.1,2.6-.46-.92-1.08-1.68-1.91-2.3.31-1.47,1.54-4.78,3.24-5.02Z"/>
    <path class="cls-11" d="M21.24,20.7c2.51-.45,2.62,3.22.3,3.07-1.83-.12-1.71-2.82-.3-3.07Z"/>
    <path class="cls-11" d="M11.29,34.81h8.51l.07.77-8.54.12c-.18-.05-.17-.84-.05-.89Z"/>
    <path class="cls-11" d="M26.21,29.71c1.77-.38,2.56,2.11.79,2.74s-2.75-2.32-.79-2.74Z"/>
    <path class="cls-7" d="M4.83,29.71c1.71-.39,2.56,2.13.74,2.73s-2.69-2.28-.74-2.73Z"/>
  </g>
  <path class="cls-2" d="M27.75,30.86c-.27-1.07-1.84-1.19-2.33-.24-.11.21-.1.14-.09-.05.53-1.03,2.23-.89,2.52.26.02.06-.08.09-.1.03h0Z"/>
  <path class="cls-4" d="M20.12,21.54c-1.03,2.33,2.93,3.47,3.22.89.22-1.98-2.46-2.61-3.22-.89Z"/>
  <path class="cls-3" d="M22.94,22.14c-.28-1.32-1.98-1.52-2.43-.2"/>
  <path class="cls-5" d="M18.64,26.42c2.59-1.63,6.25-.95,7.57,1.98-1.31-1.09-3.1-1.47-4.65-.65"/>
  <path class="cls-1" d="M13.21,26.21c.94.74,1.88,1.65,2.25,2.86-.02.16-.16.3-.17.46-.28-1.3-1.21-2.28-2.26-3.09-.15-.12.04-.36.19-.23h0Z"/>
  <path class="cls-4" d="M20.27,20.87c-1.14-.23-3.27-.61-4.3-.01-1.64.94-2.4,3.35-2.95,5.04-.93-.22-1.82-.62-2.79-.69-2.53-.17-5.24,1.52-5.59,4.15"/>
  <path class="cls-4" d="M26.16,29.44c-1.06.12-1.63,1.58-1.14,2.45,1.35,2.42,5.46-.58,1.83-2.53-1.46-.78-2.59-1.94-4.4-1.4-2.62.78-1.91,4.17-1.96,6.25-.01.64.21,1.99-.56,2.13l-8.86-.03c-.51-.05-.48-1.16-.44-1.55.02-.14.16-.33.18-.51,0-.08.04-.17.05-.25.17-2.05.44-5.11-2.02-5.88-1.59-.5-2.68.58-3.92,1.29-.26.15-.5.07-.85.36-1.31,1.08-.38,3.22,1.3,3.01,1.9-.24,1.99-2.93.16-3.37"/>
  <polyline class="cls-4" points="10.97 34.21 14.6 34.21 15.19 34.21 20.27 34.21"/>
  <path class="cls-1" d="M26.76,29.25c-1.42-6.34-10.09-4.59-11.36.88-.14,1.21-.08,2.46-.03,3.68-.03.09-.14.07-.16.23-.01.07,0,.14-.07.21-.13-1.71-.39-3.77.39-5.36,2.25-4.94,10.21-5.74,11.52.3.04.19-.24.26-.29.07h0Z"/>
  <path class="cls-4" d="M20.12,21.54c-.34.42-1,.58-1.39.92-.82.71-.45,2.37-.49,3.34"/>
</svg>